<?xml version="1.0" encoding="utf-8"?>
<!-- Generator: Adobe Illustrator 18.1.1, SVG Export Plug-In . SVG Version: 6.00 Build 0)  -->
<!DOCTYPE svg PUBLIC "-//W3C//DTD SVG 1.1//EN" "http://www.w3.org/Graphics/SVG/1.1/DTD/svg11.dtd">
<svg version="1.1" id="Layer_1" xmlns="http://www.w3.org/2000/svg" xmlns:xlink="http://www.w3.org/1999/xlink" x="0px" y="0px"
	 viewBox="0 0 175.7 93.8" enable-background="new 0 0 175.7 93.8" xml:space="preserve">
<path fill="#010101" d="M154.9,0.9c-0.7-0.3-1.5-0.6-2.2-0.9H6.1C0.9,17.1-0.8,34.3,0.3,44.7c2.4,23,14.5,40.5,39.6,46.3
	c25.9,5.9,51.1,1.9,75.3-6.3c21.3-7.2,43.1-15.5,55.5-37.1C181.3,29,174.5,9,154.9,0.9z"/>
<g>
	<g>
		<g>
			<path fill="#FFFFFF" d="M48.9,27.1c2.3,0,4.3,0.9,6,2.7c1.9,2,2.8,4.6,2.8,7.9v17h-2.8v-17c0-2.6-0.7-4.6-2-6.1
				c-1.2-1.3-2.5-1.9-4-1.9c-1.5,0-2.8,0.6-4,1.9c-1.3,1.5-2,3.5-2,6.1v16.9H40V37.7c0-2.6-0.7-4.6-2-6.1c-1.2-1.3-2.5-1.9-4-1.9
				c-1.5,0-2.8,0.6-4,1.9c-1.3,1.5-2,3.5-2,6.1v16.9h-2.8V37.7c0-3.3,0.9-5.9,2.8-7.9c1.7-1.8,3.7-2.7,6-2.7c1.5,0,2.8,0.4,4.2,1.2
				c1.4,0.9,2.5,2,3.2,3.4c0.7-1.4,1.8-2.5,3.2-3.4C46,27.5,47.4,27.1,48.9,27.1z"/>
			<path fill="#FFFFFF" d="M80.1,27.1h2.8V44c0,3-1,5.5-2.9,7.5c-2,2.1-4.4,3.2-7.4,3.2c-3,0-5.4-1.1-7.4-3.2
				c-1.9-2-2.9-4.5-2.9-7.5V27.1h2.8V44c0,2.3,0.7,4.2,2.1,5.7c1.4,1.5,3.2,2.3,5.3,2.3s3.9-0.8,5.3-2.3c1.4-1.6,2.1-3.5,2.1-5.7
				V27.1z"/>
			<path fill="#FFFFFF" d="M104.7,27.1h2.8V44c0,3-1,5.5-2.9,7.5c-2,2.1-4.4,3.2-7.4,3.2c-3,0-5.4-1.1-7.4-3.2C88,49.5,87,47,87,44
				V27.1h2.8V44c0,2.3,0.7,4.2,2.1,5.7c1.4,1.5,3.2,2.3,5.3,2.3c2.1,0,3.9-0.8,5.3-2.3c1.4-1.6,2.1-3.5,2.1-5.7V27.1z"/>
			<path fill="#FFFFFF" d="M114.4,27.1l5.3,16.6c1.5,4.6,2.3,7.1,2.6,7.5c0.1,0.2,0.3,0.3,0.4,0.3c0.1,0,0.3-0.1,0.4-0.3
				c0.3-0.4,1.1-2.9,2.6-7.5l5.3-16.6h3l-5.6,17.3c-1.3,4-2.3,6.6-2.9,7.9c-0.8,1.6-1.8,2.4-2.8,2.4c-1.1,0-2-0.8-2.8-2.4
				c-0.7-1.3-1.6-3.9-2.9-7.9l-5.6-17.3H114.4z"/>
		</g>
	</g>
	<g>
		<path fill="#FFFFFF" d="M135.8,27.6h-0.9v-0.6h2.5v0.6h-0.9v2.5h-0.6V27.6z"/>
		<path fill="#FFFFFF" d="M137.8,27.1h0.8l0.8,2.3l0.8-2.3h0.7v3h-0.6v-2l-0.7,2h-0.5l-0.7-2v2h-0.6V27.1z"/>
	</g>
</g>
</svg>
