<?xml version="1.0" encoding="utf-8"?>
<!-- Generator: Adobe Illustrator 18.1.1, SVG Export Plug-In . SVG Version: 6.00 Build 0)  -->
<!DOCTYPE svg PUBLIC "-//W3C//DTD SVG 1.1//EN" "http://www.w3.org/Graphics/SVG/1.1/DTD/svg11.dtd">
<svg version="1.1" id="Layer_1" xmlns="http://www.w3.org/2000/svg" xmlns:xlink="http://www.w3.org/1999/xlink" x="0px" y="0px"
	 viewBox="0 0 360 360" enable-background="new 0 0 360 360" xml:space="preserve">
<g>
	<path fill="#FFFFFF" d="M111,109.3h3.9c5.9,0,10.6-4.8,10.6-10.6V58.4c0-5.9-4.8-10.6-10.6-10.6H111c-5.9,0-10.6,4.8-10.6,10.6
		v40.3C100.4,104.5,105.2,109.3,111,109.3L111,109.3z M111,109.3"/>
	<g>
		<path fill="#FFFFFF" d="M247.3,109h3.9c5.9,0,10.6-4.8,10.6-10.6V58.1c0-5.9-4.8-10.6-10.6-10.6h-3.9c-5.9,0-10.6,4.8-10.6,10.6
			v40.3C236.6,104.2,241.4,109,247.3,109L247.3,109z M247.3,109"/>
		<path fill="#FFFFFF" d="M297.6,69.3h-27.3v31.8c0,10.6-8.6,16.5-19.3,16.5h-3.9c-10.6,0-19.3-8.6-19.3-19.3v-29h-93.9v29.3
			c0,10.6-8.6,19.3-19.3,19.3H111c-10.6,0-19.3-8.6-19.3-19.3V69.3H62.4c-9.5,0-17.3,7.7-17.3,17.3v208.6c0,9.5,7.7,17.3,17.3,17.3
			h235.3c9.5,0,17.3-7.7,17.3-17.3V86.6C314.9,77.1,307.1,69.3,297.6,69.3L297.6,69.3z M297.6,295.2H62.4V137.7h235.3L297.6,295.2
			C297.6,295.2,297.6,295.2,297.6,295.2L297.6,295.2z M297.6,295.2"/>
	</g>
	<path fill="#673090" d="M188.9,190.5h31c1.2,0,2.2-1,2.2-2.2v-26.8c0-1.2-1-2.2-2.2-2.2h-31c-1.2,0-2.2,1-2.2,2.2v26.8
		C186.7,189.5,187.7,190.5,188.9,190.5L188.9,190.5z M188.9,190.5"/>
	<path fill="#673090" d="M239.5,190.5h31c1.2,0,2.2-1,2.2-2.2v-26.8c0-1.2-1-2.2-2.2-2.2h-31c-1.2,0-2.2,1-2.2,2.2v26.8
		C237.3,189.5,238.3,190.5,239.5,190.5L239.5,190.5z M239.5,190.5"/>
	<path fill="#FFFFFF" d="M87.7,234.5h31c1.2,0,2.2-1,2.2-2.2v-26.8c0-1.2-1-2.2-2.2-2.2h-31c-1.2,0-2.2,1-2.2,2.2v26.8
		C85.5,233.5,86.5,234.5,87.7,234.5L87.7,234.5z M87.7,234.5"/>
	<path fill="#FFFFFF" d="M138.3,234.5h31c1.2,0,2.2-1,2.2-2.2v-26.8c0-1.2-1-2.2-2.2-2.2h-31c-1.2,0-2.2,1-2.2,2.2v26.8
		C136.1,233.5,137.1,234.5,138.3,234.5L138.3,234.5z M138.3,234.5"/>
	<path fill="#FFFFFF" d="M188.9,234.5h31c1.2,0,2.2-1,2.2-2.2v-26.8c0-1.2-1-2.2-2.2-2.2h-31c-1.2,0-2.2,1-2.2,2.2v26.8
		C186.7,233.5,187.7,234.5,188.9,234.5L188.9,234.5z M188.9,234.5"/>
	<path fill="#FFFFFF" d="M239.5,234.5h31c1.2,0,2.2-1,2.2-2.2v-26.8c0-1.2-1-2.2-2.2-2.2h-31c-1.2,0-2.2,1-2.2,2.2v26.8
		C237.3,233.5,238.3,234.5,239.5,234.5L239.5,234.5z M239.5,234.5"/>
	<path fill="#FFFFFF" d="M118.7,247.1h-31c-1.2,0-2.2,1-2.2,2.2v26.8c0,1.2,1,2.2,2.2,2.2h31c1.2,0,2.2-1,2.2-2.2v-26.8
		C121,248.1,120,247.1,118.7,247.1L118.7,247.1z M118.7,247.1"/>
	<path fill="#673090" d="M169.3,247.1h-31c-1.2,0-2.2,1-2.2,2.2v26.8c0,1.2,1,2.2,2.2,2.2h31c1.2,0,2.2-1,2.2-2.2v-26.8
		C171.5,248.1,170.6,247.1,169.3,247.1L169.3,247.1z M169.3,247.1"/>
	<path fill="#FFFFFF" d="M219.9,247.1h-31c-1.2,0-2.2,1-2.2,2.2v26.8c0,1.2,1,2.2,2.2,2.2h31c1.2,0,2.2-1,2.2-2.2v-26.8
		C222.1,248.1,221.1,247.1,219.9,247.1L219.9,247.1z M219.9,247.1"/>
	<path fill="#FFFFFF" d="M270.5,247.1h-31c-1.2,0-2.2,1-2.2,2.2v26.8c0,1.2,1,2.2,2.2,2.2h31c1.2,0,2.2-1,2.2-2.2v-26.8
		C272.7,248.1,271.7,247.1,270.5,247.1L270.5,247.1z M270.5,247.1"/>
</g>
<g>
	<g>
		<path fill="#FFFFFF" d="M127.6,484.1l-177.5-37.6c-7.5-1.6-15,3.3-16.5,10.8l-3.4,21.7L135,522.3l3.4-21.7
			C140,493.1,135.1,485.7,127.6,484.1L127.6,484.1z M127.6,484.1"/>
		<path fill="#FFFFFF" d="M53,526.9c-2.1-7.5-9.9-11.9-17.3-9.8L2,526.4l-79.4-16.8l-8.7,41.3l-54.6,15.1
			c-7.5,2.1-11.9,9.9-9.8,17.3l30.8,110.8c2.1,7.5,9.9,11.9,17.3,9.8l176.4-49c7.5-2.1,11.9-9.9,9.8-17.3l-5.3-19l19.8,4.2
			c7.5,1.6,15-3.3,16.5-10.8l12.5-59.2l-71.3-15.1L53,526.9z M73.4,583.2l4.4-20.6c0.7-3.1,3.7-5.1,6.8-4.4l20.6,4.4
			c3.1,0.7,5.1,3.7,4.4,6.8l-4.4,20.6c-0.7,3.1-3.7,5.1-6.8,4.4L77.8,590C74.7,589.4,72.7,586.3,73.4,583.2L73.4,583.2z
			 M-137.7,577.1l48.8-13.5l115.2-32l12.4-3.4c0.2-0.1,0.5-0.1,0.7-0.1c1,0,2.2,0.7,2.5,1.9l1.5,5.2l4.6,16.4L-133.5,602l-6-21.7
			C-139.9,579-139,577.5-137.7,577.1L-137.7,577.1z M72.7,640.8c0.2,0.8,0,1.5-0.3,2c-0.2,0.4-0.7,1-1.6,1.2l-176.4,49
			c-0.2,0.1-0.5,0.1-0.7,0.1c-1,0-2.2-0.7-2.5-1.9l-17.9-64.6l181.4-50.4L65.8,616L72.7,640.8z M72.7,640.8"/>
	</g>
	<path fill="#673090" d="M-77,645.2c-0.8-3-4-4.8-7.1-4l-20.6,5.7c-3,0.8-4.8,4-4,7.1l5.7,20.6c0.8,3,4,4.8,7.1,4l20.6-5.7
		c3-0.8,4.8-4,4-7.1L-77,645.2z M-77,645.2"/>
</g>
</svg>
