<?xml version="1.0" encoding="utf-8"?>
<!-- Generator: Adobe Illustrator 18.1.1, SVG Export Plug-In . SVG Version: 6.00 Build 0)  -->
<!DOCTYPE svg PUBLIC "-//W3C//DTD SVG 1.1//EN" "http://www.w3.org/Graphics/SVG/1.1/DTD/svg11.dtd">
<svg version="1.1" id="Layer_1" xmlns="http://www.w3.org/2000/svg" xmlns:xlink="http://www.w3.org/1999/xlink" x="0px" y="0px"
	 viewBox="0 0 360 360" enable-background="new 0 0 360 360" xml:space="preserve">
<g>
	<path fill="#FFFFFF" d="M180,62.6c-42.8,0-77.7,34.8-77.7,77.7c0,17.2,11,45.4,33.7,86c16,28.7,31.8,52.7,32.4,53.7l11.5,17.5
		l11.5-17.5c0.7-1,16.4-24.9,32.4-53.7c22.7-40.6,33.7-68.7,33.7-86C257.7,97.4,222.8,62.6,180,62.6L180,62.6z M180,180
		c-22.2,0-40.3-18-40.3-40.3c0-22.2,18-40.3,40.3-40.3c22.2,0,40.3,18,40.3,40.3C220.3,162,202.2,180,180,180L180,180z M180,180"/>
</g>
<g>
	<path fill="#FFFFFF" d="M-381.1,535.4h3.9c5.9,0,10.6-4.8,10.6-10.6v-40.3c0-5.9-4.8-10.6-10.6-10.6h-3.9
		c-5.9,0-10.6,4.8-10.6,10.6v40.3C-391.7,530.6-386.9,535.4-381.1,535.4L-381.1,535.4z M-381.1,535.4"/>
	<g>
		<path fill="#FFFFFF" d="M-244.9,535.1h3.9c5.9,0,10.6-4.8,10.6-10.6v-40.3c0-5.9-4.8-10.6-10.6-10.6h-3.9
			c-5.9,0-10.6,4.8-10.6,10.6v40.3C-255.5,530.4-250.7,535.1-244.9,535.1L-244.9,535.1z M-244.9,535.1"/>
		<path fill="#FFFFFF" d="M-194.5,495.4h-27.3v31.8c0,10.6-8.6,16.5-19.3,16.5h-3.9c-10.6,0-19.3-8.6-19.3-19.3v-29H-358v29.3
			c0,10.6-8.6,19.3-19.3,19.3h-3.9c-10.6,0-19.3-8.6-19.3-19.3v-29.3h-29.4c-9.5,0-17.3,7.7-17.3,17.3v208.6
			c0,9.5,7.7,17.3,17.3,17.3h235.3c9.5,0,17.3-7.7,17.3-17.3V512.7C-177.2,503.2-185,495.4-194.5,495.4L-194.5,495.4z M-194.5,721.3
			h-235.3V563.8h235.3L-194.5,721.3C-194.5,721.3-194.5,721.3-194.5,721.3L-194.5,721.3z M-194.5,721.3"/>
	</g>
	<path fill="#673090" d="M-303.2,616.6h31c1.2,0,2.2-1,2.2-2.2v-26.8c0-1.2-1-2.2-2.2-2.2h-31c-1.2,0-2.2,1-2.2,2.2v26.8
		C-305.4,615.6-304.4,616.6-303.2,616.6L-303.2,616.6z M-303.2,616.6"/>
	<path fill="#673090" d="M-252.6,616.6h31c1.2,0,2.2-1,2.2-2.2v-26.8c0-1.2-1-2.2-2.2-2.2h-31c-1.2,0-2.2,1-2.2,2.2v26.8
		C-254.8,615.6-253.8,616.6-252.6,616.6L-252.6,616.6z M-252.6,616.6"/>
	<path fill="#FFFFFF" d="M-404.4,660.6h31c1.2,0,2.2-1,2.2-2.2v-26.8c0-1.2-1-2.2-2.2-2.2h-31c-1.2,0-2.2,1-2.2,2.2v26.8
		C-406.6,659.6-405.6,660.6-404.4,660.6L-404.4,660.6z M-404.4,660.6"/>
	<path fill="#FFFFFF" d="M-353.8,660.6h31c1.2,0,2.2-1,2.2-2.2v-26.8c0-1.2-1-2.2-2.2-2.2h-31c-1.2,0-2.2,1-2.2,2.2v26.8
		C-356,659.6-355,660.6-353.8,660.6L-353.8,660.6z M-353.8,660.6"/>
	<path fill="#FFFFFF" d="M-303.2,660.6h31c1.2,0,2.2-1,2.2-2.2v-26.8c0-1.2-1-2.2-2.2-2.2h-31c-1.2,0-2.2,1-2.2,2.2v26.8
		C-305.4,659.6-304.4,660.6-303.2,660.6L-303.2,660.6z M-303.2,660.6"/>
	<path fill="#FFFFFF" d="M-252.6,660.6h31c1.2,0,2.2-1,2.2-2.2v-26.8c0-1.2-1-2.2-2.2-2.2h-31c-1.2,0-2.2,1-2.2,2.2v26.8
		C-254.8,659.6-253.8,660.6-252.6,660.6L-252.6,660.6z M-252.6,660.6"/>
	<path fill="#FFFFFF" d="M-373.4,673.2h-31c-1.2,0-2.2,1-2.2,2.2v26.8c0,1.2,1,2.2,2.2,2.2h31c1.2,0,2.2-1,2.2-2.2v-26.8
		C-371.2,674.2-372.2,673.2-373.4,673.2L-373.4,673.2z M-373.4,673.2"/>
	<path fill="#673090" d="M-322.8,673.2h-31c-1.2,0-2.2,1-2.2,2.2v26.8c0,1.2,1,2.2,2.2,2.2h31c1.2,0,2.2-1,2.2-2.2v-26.8
		C-320.6,674.2-321.6,673.2-322.8,673.2L-322.8,673.2z M-322.8,673.2"/>
	<path fill="#FFFFFF" d="M-272.2,673.2h-31c-1.2,0-2.2,1-2.2,2.2v26.8c0,1.2,1,2.2,2.2,2.2h31c1.2,0,2.2-1,2.2-2.2v-26.8
		C-270,674.2-271,673.2-272.2,673.2L-272.2,673.2z M-272.2,673.2"/>
	<path fill="#FFFFFF" d="M-221.6,673.2h-31c-1.2,0-2.2,1-2.2,2.2v26.8c0,1.2,1,2.2,2.2,2.2h31c1.2,0,2.2-1,2.2-2.2v-26.8
		C-219.4,674.2-220.4,673.2-221.6,673.2L-221.6,673.2z M-221.6,673.2"/>
</g>
<g>
	<g>
		<path fill="#FFFFFF" d="M-290.9,40.4c12.9,8.1,22,21.9,23.7,37.8c5.3,2.5,11.1,3.9,17.4,3.9c22.7,0,41.1-18.4,41.1-41
			c0-22.7-18.4-41.1-41.1-41.1C-272.3,0-290.5,18-290.9,40.4L-290.9,40.4z M-317.8,124.5c22.7,0,41.1-18.4,41.1-41.1
			c0-22.7-18.4-41-41.1-41c-22.7,0-41.1,18.4-41.1,41.1C-358.9,106.1-340.5,124.5-317.8,124.5L-317.8,124.5z M-300.4,127.3h-34.8
			c-29,0-52.6,23.6-52.6,52.6v42.6l0.1,0.7l2.9,0.9c27.7,8.6,51.7,11.5,71.5,11.5c38.6,0,61-11,62.4-11.7l2.7-1.4h0.3v-42.6
			C-247.8,150.9-271.4,127.3-300.4,127.3L-300.4,127.3z M-232.4,84.9H-267c-0.4,13.8-6.3,26.3-15.6,35.2
			c25.8,7.7,44.6,31.5,44.6,59.8v13.1c34.1-1.2,53.8-10.9,55.1-11.6l2.7-1.4h0.3v-42.6C-179.9,108.5-203.5,84.9-232.4,84.9
			L-232.4,84.9z M-389.8,82.1c8,0,15.5-2.4,21.8-6.3c2-13.1,9.1-24.6,19.1-32.4c0-0.8,0.1-1.5,0.1-2.3c0-22.7-18.4-41.1-41.1-41.1
			c-22.7,0-41.1,18.4-41.1,41.1C-430.9,63.7-412.5,82.1-389.8,82.1L-389.8,82.1z M-352.9,120.2c-9.3-8.9-15.2-21.3-15.6-35.1
			c-1.3-0.1-2.6-0.2-3.9-0.2h-34.8c-29,0-52.6,23.6-52.6,52.6v42.6l0.1,0.7l2.9,0.9c22.2,6.9,42,10.1,59.2,11.1v-12.9
			C-397.6,151.7-378.7,127.8-352.9,120.2L-352.9,120.2z M-352.9,120.2"/>
	</g>
</g>
<g>
	<g>
		<path fill="#FFFFFF" d="M127.6,484.1l-177.5-37.6c-7.5-1.6-15,3.3-16.5,10.8l-3.4,21.7L135,522.3l3.4-21.7
			C140,493.1,135.1,485.7,127.6,484.1L127.6,484.1z M127.6,484.1"/>
		<path fill="#FFFFFF" d="M53,526.9c-2.1-7.5-9.9-11.9-17.3-9.8L2,526.4l-79.4-16.8l-8.7,41.3l-54.6,15.1
			c-7.5,2.1-11.9,9.9-9.8,17.3l30.8,110.8c2.1,7.5,9.9,11.9,17.3,9.8l176.4-49c7.5-2.1,11.9-9.9,9.8-17.3l-5.3-19l19.8,4.2
			c7.5,1.6,15-3.3,16.5-10.8l12.5-59.2l-71.3-15.1L53,526.9z M73.4,583.2l4.4-20.6c0.7-3.1,3.7-5.1,6.8-4.4l20.6,4.4
			c3.1,0.7,5.1,3.7,4.4,6.8l-4.4,20.6c-0.7,3.1-3.7,5.1-6.8,4.4L77.8,590C74.7,589.4,72.7,586.3,73.4,583.2L73.4,583.2z
			 M-137.7,577.1l48.8-13.5l115.2-32l12.4-3.4c0.2-0.1,0.5-0.1,0.7-0.1c1,0,2.2,0.7,2.5,1.9l1.5,5.2l4.6,16.4L-133.5,602l-6-21.7
			C-139.9,579-139,577.5-137.7,577.1L-137.7,577.1z M72.7,640.8c0.2,0.8,0,1.5-0.3,2c-0.2,0.4-0.7,1-1.6,1.2l-176.4,49
			c-0.2,0.1-0.5,0.1-0.7,0.1c-1,0-2.2-0.7-2.5-1.9l-17.9-64.6l181.4-50.4L65.8,616L72.7,640.8z M72.7,640.8"/>
	</g>
	<path fill="#673090" d="M-77,645.2c-0.8-3-4-4.8-7.1-4l-20.6,5.7c-3,0.8-4.8,4-4,7.1l5.7,20.6c0.8,3,4,4.8,7.1,4l20.6-5.7
		c3-0.8,4.8-4,4-7.1L-77,645.2z M-77,645.2"/>
</g>
</svg>
