<?xml version="1.0" encoding="utf-8"?>
<!-- Generator: Adobe Illustrator 18.1.1, SVG Export Plug-In . SVG Version: 6.00 Build 0)  -->
<!DOCTYPE svg PUBLIC "-//W3C//DTD SVG 1.1//EN" "http://www.w3.org/Graphics/SVG/1.1/DTD/svg11.dtd">
<svg version="1.1" id="Layer_1" xmlns="http://www.w3.org/2000/svg" xmlns:xlink="http://www.w3.org/1999/xlink" x="0px" y="0px"
	 viewBox="0 0 360 360" enable-background="new 0 0 360 360" xml:space="preserve">
<g>
	<g>
		<path fill="#FFFFFF" d="M313.8,88.7L136.4,51.2c-7.5-1.6-15,3.3-16.5,10.8l-3.4,21.7l204.8,43.3l3.4-21.7
			C326.2,97.7,321.3,90.3,313.8,88.7L313.8,88.7z M313.8,88.7"/>
		<path fill="#FFFFFF" d="M239.2,131.5c-2.1-7.5-9.9-11.9-17.3-9.8l-33.7,9.4l-79.4-16.8l-8.7,41.3l-54.6,15.1
			c-7.5,2.1-11.9,9.9-9.8,17.3l30.8,110.8c2.1,7.5,9.9,11.9,17.3,9.8l176.4-49c7.5-2.1,11.9-9.9,9.8-17.3l-5.3-19l19.8,4.2
			c7.5,1.6,15-3.3,16.5-10.8l12.5-59.2l-71.3-15.1L239.2,131.5z M259.6,187.8l4.4-20.6c0.7-3.1,3.7-5.1,6.8-4.4l20.6,4.4
			c3.1,0.7,5.1,3.7,4.4,6.8l-4.4,20.6c-0.7,3.1-3.7,5.1-6.8,4.4l-20.6-4.4C260.9,194,258.9,190.9,259.6,187.8L259.6,187.8z
			 M48.5,181.7l48.8-13.5l115.2-32l12.4-3.4c0.2-0.1,0.5-0.1,0.7-0.1c1,0,2.2,0.7,2.5,1.9l1.5,5.2l4.6,16.4L52.7,206.6l-6-21.7
			C46.3,183.6,47.1,182.1,48.5,181.7L48.5,181.7z M258.9,245.4c0.2,0.8,0,1.5-0.3,2c-0.2,0.4-0.7,1-1.6,1.2l-176.4,49
			c-0.2,0.1-0.5,0.1-0.7,0.1c-1,0-2.2-0.7-2.5-1.9l-17.9-64.6l181.4-50.4l11.1,39.9L258.9,245.4z M258.9,245.4"/>
	</g>
	<path fill="#673090" d="M109.2,249.8c-0.8-3-4-4.8-7.1-4l-20.6,5.7c-3,0.8-4.8,4-4,7.1l5.7,20.6c0.8,3,4,4.8,7.1,4l20.6-5.7
		c3-0.8,4.8-4,4-7.1L109.2,249.8z M109.2,249.8"/>
</g>
</svg>
